<?xml version="1.0" encoding="UTF-8" standalone="no"?>
<svg
   version="1.1"
   width="256"
   height="256"
   viewBox="0 0 256 256"
   xml:space="preserve"
   id="svg1"
   xmlns:xlink="http://www.w3.org/1999/xlink"
   xmlns="http://www.w3.org/2000/svg"
   xmlns:svg="http://www.w3.org/2000/svg"><defs
   id="defs1"><linearGradient
     id="linearGradient2"><stop
       style="stop-color:#5221ff;stop-opacity:1;"
       offset="0"
       id="stop2" /><stop
       style="stop-color:#9300ce;stop-opacity:0;"
       offset="1"
       id="stop3" /></linearGradient><linearGradient
     xlink:href="#linearGradient2"
     id="linearGradient3"
     x1="-0.30512556"
     y1="193.14421"
     x2="344.4863"
     y2="39.666267"
     gradientUnits="userSpaceOnUse" /></defs>
<path
   d="m 191.57896,65.128963 c -25.49513,0 -42.03198,9.27019 -54.72194,22.22429 4.88659,6.46862 9.28986,13.364357 13.64817,20.203897 2.01758,3.16687 3.91433,6.0977 5.72397,8.81497 10.11038,-12.645 19.0799,-17.523157 35.3498,-17.523157 15.99452,0 29.00763,13.013107 29.00763,29.007627 0,15.99452 -13.01311,29.00763 -29.00763,29.00763 -23.18531,0 -31.53944,-9.86872 -49.50096,-38.06707 -16.80942,-26.385897 -34.18927,-53.668187 -77.943777,-53.668187 -34.58829,0 -62.7276296,28.13934 -62.7276296,62.727627 0,34.58829 28.1393396,62.72763 62.7276296,62.72763 25.09892,0 41.503697,-8.992 54.114977,-21.62857 l 4.14756,6.42928 c 1.405,2.18056 4.78824,1.13524 4.7208,-1.45839 l -0.96664,-37.01894 c -0.0309,-1.20549 -0.89639,-2.22552 -2.08221,-2.45313 l -26.138617,-5.01585 c -2.21709,-0.42431 -3.86375,2.01196 -2.6414,3.91152 l 4.00706,6.21572 c -10.03451,12.47078 -18.99279,17.29836 -35.16434,17.29836 -15.99171,0 -29.00482,-13.01311 -29.00482,-29.00763 0,-15.99452 13.01311,-29.007627 29.00763,-29.007627 16.96678,0 25.99812,5.322137 36.659257,19.206347 l 34.3382,6.58945 c 1.18301,0.22761 2.0513,1.24764 2.08221,2.45313 l 1.11557,42.73448 c 12.49607,12.17854 28.72944,20.74904 53.25231,20.74904 34.58548,0.003 62.72482,-28.13653 62.72482,-62.72482 0,-34.588287 -28.13934,-62.727627 -62.72763,-62.727627 z"
   style="fill:url(#linearGradient3);fill-opacity:1;fill-rule:nonzero;stroke:none;stroke-width:2.81;stroke-linecap:butt;stroke-linejoin:miter;stroke-miterlimit:10;stroke-dasharray:none"
   stroke-linecap="round"
   id="path1" />
</svg>
